<?xml version="1.0" encoding="utf-8"?>
<!-- Generator: Adobe Illustrator 25.0.1, SVG Export Plug-In . SVG Version: 6.00 Build 0)  -->
<svg version="1.1" xmlns="http://www.w3.org/2000/svg" xmlns:xlink="http://www.w3.org/1999/xlink" x="0px" y="0px"
	 viewBox="0 0 1000 1000" style="enable-background:new 0 0 1000 1000;" xml:space="preserve">
<style type="text/css">
	.st0{display:none;}
	.st1{display:inline;}
	.st2{fill:none;stroke:#000000;stroke-width:35;stroke-miterlimit:10;}
	.st3{fill:#FFFFFF;}
</style>
<g id="Layer_2" class="st0">
	<g class="st1">
		<path d="M696.26,337.3v246.05H303.74V337.3H696.26 M697.26,336.3h-1H303.74h-1v1v246.05v1h1h392.51h1v-1V337.3V336.3L697.26,336.3
			z"/>
	</g>
</g>
<g id="Layer_1">
	<path class="st2" d="M109.93-897.95"/>
	<g>
		
			<ellipse transform="matrix(0.7071 -0.7071 0.7071 0.7071 -154.1224 415.9285)" class="st3" cx="425.01" cy="394.01" rx="51.06" ry="51.06"/>
		<path class="st3" d="M805.01,252.54h-95.5C639.81,399.3,545.17,512.42,431.7,583.31c-59.98,37.48-113.85,56.05-149.83,65.15
			V252.54h-86.88v493.79l45.92-2.63c4.29-0.25,106.61-6.91,231.7-83.54c28.37-17.38,55.71-37.03,81.93-58.79v146.1h70.4V534.93
			c14.84-15.86,29.21-32.48,43.08-49.87C721.14,418.44,767.03,340.5,805.01,252.54z"/>
	</g>
</g>
<g id="Layer_3" class="st0">
	<path class="st1" d="M656.39,583.35h39.32c-21.15-46.11-58.1-83.92-108.2-110.36c-44.27-23.37-83.14-29.69-84.78-29.95l-5.46,34.57
		C498.49,477.8,606.25,495.86,656.39,583.35z"/>
</g>
</svg>
